<mxfile host="Electron" modified="2024-07-16T04:47:32.964Z" agent="Mozilla/5.0 (Windows NT 10.0; Win64; x64) AppleWebKit/537.36 (KHTML, like Gecko) draw.io/24.6.4 Chrome/124.0.6367.207 Electron/30.0.6 Safari/537.36" etag="ozUvHmba5dD2mkH1DIWz" version="24.6.4" type="device" pages="2">
  <diagram id="C5RBs43oDa-KdzZeNtuy" name="硬件架构">
    <mxGraphModel dx="2012" dy="1432" grid="1" gridSize="10" guides="1" tooltips="1" connect="1" arrows="1" fold="1" page="1" pageScale="1" pageWidth="1654" pageHeight="1169" math="1" shadow="0">
      <root>
        <mxCell id="WIyWlLk6GJQsqaUBKTNV-0" />
        <mxCell id="WIyWlLk6GJQsqaUBKTNV-1" parent="WIyWlLk6GJQsqaUBKTNV-0" />
        <mxCell id="TnVSL_w9nsZpXG7mcKR7-17" value="" style="rounded=0;whiteSpace=wrap;html=1;fillColor=none;dashed=1;strokeWidth=2;" parent="WIyWlLk6GJQsqaUBKTNV-1" vertex="1">
          <mxGeometry x="1110" y="240" width="310" height="500" as="geometry" />
        </mxCell>
        <mxCell id="TnVSL_w9nsZpXG7mcKR7-15" value="" style="rounded=0;whiteSpace=wrap;html=1;fillColor=none;dashed=1;strokeWidth=4;" parent="WIyWlLk6GJQsqaUBKTNV-1" vertex="1">
          <mxGeometry x="220" y="200" width="1220" height="790" as="geometry" />
        </mxCell>
        <mxCell id="TnVSL_w9nsZpXG7mcKR7-0" value="" style="rounded=0;whiteSpace=wrap;html=1;fillColor=none;dashed=1;strokeWidth=3;" parent="WIyWlLk6GJQsqaUBKTNV-1" vertex="1">
          <mxGeometry x="230" y="210" width="1200" height="560" as="geometry" />
        </mxCell>
        <mxCell id="0YSMYR0BDEywVhF84IDS-15" value="" style="rounded=0;whiteSpace=wrap;html=1;fillColor=none;dashed=1;strokeWidth=2;" parent="WIyWlLk6GJQsqaUBKTNV-1" vertex="1">
          <mxGeometry x="240" y="240" width="870" height="500" as="geometry" />
        </mxCell>
        <mxCell id="TnVSL_w9nsZpXG7mcKR7-9" value="" style="rounded=0;whiteSpace=wrap;html=1;dashed=1;fillColor=none;strokeWidth=3;" parent="WIyWlLk6GJQsqaUBKTNV-1" vertex="1">
          <mxGeometry x="1040" y="790" width="240" height="180" as="geometry" />
        </mxCell>
        <mxCell id="0YSMYR0BDEywVhF84IDS-18" value="" style="rounded=0;whiteSpace=wrap;html=1;fillColor=none;" parent="WIyWlLk6GJQsqaUBKTNV-1" vertex="1">
          <mxGeometry x="270" y="300" width="830" height="320" as="geometry" />
        </mxCell>
        <mxCell id="0YSMYR0BDEywVhF84IDS-10" value="" style="group;fillColor=none;strokeColor=default;dashed=1;container=0;" parent="WIyWlLk6GJQsqaUBKTNV-1" vertex="1" connectable="0">
          <mxGeometry x="250" y="270" width="360" height="450" as="geometry" />
        </mxCell>
        <mxCell id="0YSMYR0BDEywVhF84IDS-1" value="传感器系统" style="text;html=1;align=center;verticalAlign=middle;whiteSpace=wrap;rounded=0;fontSize=16;" parent="WIyWlLk6GJQsqaUBKTNV-1" vertex="1">
          <mxGeometry x="270" y="270" width="100" height="30" as="geometry" />
        </mxCell>
        <mxCell id="V2A-lgFZdCHgow1j0UfU-2" style="edgeStyle=none;curved=0;rounded=0;orthogonalLoop=1;jettySize=auto;html=1;entryX=-0.006;entryY=0.833;entryDx=0;entryDy=0;fontSize=12;startSize=8;endSize=8;exitX=1;exitY=0.5;exitDx=0;exitDy=0;startArrow=classic;startFill=1;entryPerimeter=0;" parent="WIyWlLk6GJQsqaUBKTNV-1" source="0YSMYR0BDEywVhF84IDS-11" target="0YSMYR0BDEywVhF84IDS-23" edge="1">
          <mxGeometry relative="1" as="geometry">
            <Array as="points">
              <mxPoint x="440" y="490" />
              <mxPoint x="440" y="530" />
              <mxPoint x="440" y="570" />
              <mxPoint x="780" y="570" />
              <mxPoint x="780" y="550" />
            </Array>
          </mxGeometry>
        </mxCell>
        <mxCell id="V2A-lgFZdCHgow1j0UfU-8" value="UART" style="edgeLabel;html=1;align=center;verticalAlign=middle;resizable=0;points=[];fontSize=12;" parent="V2A-lgFZdCHgow1j0UfU-2" vertex="1" connectable="0">
          <mxGeometry relative="1" as="geometry">
            <mxPoint as="offset" />
          </mxGeometry>
        </mxCell>
        <mxCell id="0YSMYR0BDEywVhF84IDS-11" value="GPS" style="rounded=0;whiteSpace=wrap;html=1;" parent="WIyWlLk6GJQsqaUBKTNV-1" vertex="1">
          <mxGeometry x="310" y="460" width="120" height="60" as="geometry" />
        </mxCell>
        <mxCell id="V2A-lgFZdCHgow1j0UfU-4" style="edgeStyle=none;curved=0;rounded=0;orthogonalLoop=1;jettySize=auto;html=1;exitX=0.984;exitY=0.171;exitDx=0;exitDy=0;entryX=0.25;entryY=0;entryDx=0;entryDy=0;fontSize=12;startSize=8;endSize=8;exitPerimeter=0;" parent="WIyWlLk6GJQsqaUBKTNV-1" source="0YSMYR0BDEywVhF84IDS-12" target="0YSMYR0BDEywVhF84IDS-23" edge="1">
          <mxGeometry relative="1" as="geometry">
            <Array as="points">
              <mxPoint x="830" y="470" />
            </Array>
          </mxGeometry>
        </mxCell>
        <mxCell id="V2A-lgFZdCHgow1j0UfU-5" value="I2C" style="edgeLabel;html=1;align=center;verticalAlign=middle;resizable=0;points=[];fontSize=12;" parent="V2A-lgFZdCHgow1j0UfU-4" vertex="1" connectable="0">
          <mxGeometry relative="1" as="geometry">
            <mxPoint as="offset" />
          </mxGeometry>
        </mxCell>
        <mxCell id="0YSMYR0BDEywVhF84IDS-12" value="气压计" style="rounded=0;whiteSpace=wrap;html=1;" parent="WIyWlLk6GJQsqaUBKTNV-1" vertex="1">
          <mxGeometry x="450" y="460" width="120" height="60" as="geometry" />
        </mxCell>
        <mxCell id="V2A-lgFZdCHgow1j0UfU-3" style="edgeStyle=none;curved=0;rounded=0;orthogonalLoop=1;jettySize=auto;html=1;exitX=1.017;exitY=0.828;exitDx=0;exitDy=0;fontSize=12;startSize=8;endSize=8;startArrow=classic;startFill=1;exitPerimeter=0;" parent="WIyWlLk6GJQsqaUBKTNV-1" source="0YSMYR0BDEywVhF84IDS-13" edge="1">
          <mxGeometry relative="1" as="geometry">
            <Array as="points">
              <mxPoint x="890" y="590" />
            </Array>
            <mxPoint x="890" y="561" as="targetPoint" />
          </mxGeometry>
        </mxCell>
        <mxCell id="V2A-lgFZdCHgow1j0UfU-7" value="I2C" style="edgeLabel;html=1;align=center;verticalAlign=middle;resizable=0;points=[];fontSize=12;" parent="V2A-lgFZdCHgow1j0UfU-3" vertex="1" connectable="0">
          <mxGeometry relative="1" as="geometry">
            <mxPoint as="offset" />
          </mxGeometry>
        </mxCell>
        <mxCell id="0YSMYR0BDEywVhF84IDS-13" value="磁力计" style="rounded=0;whiteSpace=wrap;html=1;" parent="WIyWlLk6GJQsqaUBKTNV-1" vertex="1">
          <mxGeometry x="310" y="540" width="120" height="60" as="geometry" />
        </mxCell>
        <mxCell id="V2A-lgFZdCHgow1j0UfU-17" style="edgeStyle=none;curved=0;rounded=0;orthogonalLoop=1;jettySize=auto;html=1;exitX=1;exitY=0.5;exitDx=0;exitDy=0;entryX=0.5;entryY=1;entryDx=0;entryDy=0;fontSize=12;startSize=8;endSize=8;dashed=1;dashPattern=8 8;" parent="WIyWlLk6GJQsqaUBKTNV-1" source="0YSMYR0BDEywVhF84IDS-14" target="0YSMYR0BDEywVhF84IDS-26" edge="1">
          <mxGeometry relative="1" as="geometry">
            <Array as="points">
              <mxPoint x="1030" y="670" />
            </Array>
          </mxGeometry>
        </mxCell>
        <mxCell id="V2A-lgFZdCHgow1j0UfU-18" value="AV模拟信号" style="edgeLabel;html=1;align=center;verticalAlign=middle;resizable=0;points=[];fontSize=12;" parent="V2A-lgFZdCHgow1j0UfU-17" vertex="1" connectable="0">
          <mxGeometry relative="1" as="geometry">
            <mxPoint as="offset" />
          </mxGeometry>
        </mxCell>
        <mxCell id="0YSMYR0BDEywVhF84IDS-14" value="摄像头" style="rounded=0;whiteSpace=wrap;html=1;" parent="WIyWlLk6GJQsqaUBKTNV-1" vertex="1">
          <mxGeometry x="310" y="640" width="120" height="60" as="geometry" />
        </mxCell>
        <mxCell id="V2A-lgFZdCHgow1j0UfU-9" style="edgeStyle=none;curved=0;rounded=0;orthogonalLoop=1;jettySize=auto;html=1;exitX=1;exitY=0.5;exitDx=0;exitDy=0;entryX=0.661;entryY=0.037;entryDx=0;entryDy=0;fontSize=12;startArrow=classic;startFill=1;entryPerimeter=0;" parent="WIyWlLk6GJQsqaUBKTNV-1" source="0YSMYR0BDEywVhF84IDS-17" target="0YSMYR0BDEywVhF84IDS-23" edge="1">
          <mxGeometry relative="1" as="geometry">
            <Array as="points">
              <mxPoint x="770" y="390" />
              <mxPoint x="770" y="440" />
              <mxPoint x="880" y="440" />
            </Array>
          </mxGeometry>
        </mxCell>
        <mxCell id="V2A-lgFZdCHgow1j0UfU-10" value="USB" style="edgeLabel;html=1;align=center;verticalAlign=middle;resizable=0;points=[];fontSize=12;" parent="V2A-lgFZdCHgow1j0UfU-9" vertex="1" connectable="0">
          <mxGeometry relative="1" as="geometry">
            <mxPoint as="offset" />
          </mxGeometry>
        </mxCell>
        <mxCell id="0YSMYR0BDEywVhF84IDS-17" value="USB" style="rounded=0;whiteSpace=wrap;html=1;" parent="WIyWlLk6GJQsqaUBKTNV-1" vertex="1">
          <mxGeometry x="630" y="360" width="120" height="60" as="geometry" />
        </mxCell>
        <mxCell id="0YSMYR0BDEywVhF84IDS-19" value="飞控板" style="text;html=1;align=center;verticalAlign=middle;whiteSpace=wrap;rounded=0;fontSize=16;" parent="WIyWlLk6GJQsqaUBKTNV-1" vertex="1">
          <mxGeometry x="290" y="300" width="70" height="30" as="geometry" />
        </mxCell>
        <mxCell id="0YSMYR0BDEywVhF84IDS-20" value="ADC数模转换" style="rounded=0;whiteSpace=wrap;html=1;" parent="WIyWlLk6GJQsqaUBKTNV-1" vertex="1">
          <mxGeometry x="800" y="360" width="120" height="60" as="geometry" />
        </mxCell>
        <mxCell id="0YSMYR0BDEywVhF84IDS-23" value="MCU" style="rounded=0;whiteSpace=wrap;html=1;" parent="WIyWlLk6GJQsqaUBKTNV-1" vertex="1">
          <mxGeometry x="800" y="500" width="120" height="60" as="geometry" />
        </mxCell>
        <mxCell id="0YSMYR0BDEywVhF84IDS-40" style="edgeStyle=none;curved=1;rounded=0;orthogonalLoop=1;jettySize=auto;html=1;exitX=1;exitY=0.5;exitDx=0;exitDy=0;entryX=0;entryY=0.5;entryDx=0;entryDy=0;fontSize=12;startSize=6;endSize=6;endArrow=none;endFill=0;" parent="WIyWlLk6GJQsqaUBKTNV-1" source="0YSMYR0BDEywVhF84IDS-24" target="0YSMYR0BDEywVhF84IDS-28" edge="1">
          <mxGeometry relative="1" as="geometry" />
        </mxCell>
        <mxCell id="0YSMYR0BDEywVhF84IDS-24" value="电源模块" style="rounded=0;whiteSpace=wrap;html=1;" parent="WIyWlLk6GJQsqaUBKTNV-1" vertex="1">
          <mxGeometry x="970" y="360" width="120" height="60" as="geometry" />
        </mxCell>
        <mxCell id="0YSMYR0BDEywVhF84IDS-25" value="黑匣子" style="rounded=0;whiteSpace=wrap;html=1;" parent="WIyWlLk6GJQsqaUBKTNV-1" vertex="1">
          <mxGeometry x="630" y="500" width="120" height="60" as="geometry" />
        </mxCell>
        <mxCell id="V2A-lgFZdCHgow1j0UfU-15" style="edgeStyle=none;curved=0;rounded=0;orthogonalLoop=1;jettySize=auto;html=1;exitX=0;exitY=0.5;exitDx=0;exitDy=0;entryX=1;entryY=0.5;entryDx=0;entryDy=0;fontSize=12;startSize=8;endSize=8;" parent="WIyWlLk6GJQsqaUBKTNV-1" source="0YSMYR0BDEywVhF84IDS-26" target="0YSMYR0BDEywVhF84IDS-23" edge="1">
          <mxGeometry relative="1" as="geometry" />
        </mxCell>
        <mxCell id="V2A-lgFZdCHgow1j0UfU-16" value="UART" style="edgeLabel;html=1;align=center;verticalAlign=middle;resizable=0;points=[];fontSize=12;" parent="V2A-lgFZdCHgow1j0UfU-15" vertex="1" connectable="0">
          <mxGeometry relative="1" as="geometry">
            <mxPoint x="5" as="offset" />
          </mxGeometry>
        </mxCell>
        <mxCell id="V2A-lgFZdCHgow1j0UfU-20" style="edgeStyle=none;curved=0;rounded=0;orthogonalLoop=1;jettySize=auto;html=1;exitX=0.75;exitY=1;exitDx=0;exitDy=0;entryX=0;entryY=0.5;entryDx=0;entryDy=0;fontSize=12;startSize=8;endSize=8;" parent="WIyWlLk6GJQsqaUBKTNV-1" source="0YSMYR0BDEywVhF84IDS-26" target="V2A-lgFZdCHgow1j0UfU-19" edge="1">
          <mxGeometry relative="1" as="geometry">
            <Array as="points">
              <mxPoint x="1060" y="670" />
              <mxPoint x="1120" y="670" />
            </Array>
          </mxGeometry>
        </mxCell>
        <mxCell id="V2A-lgFZdCHgow1j0UfU-22" value="AV模拟信号" style="edgeLabel;html=1;align=center;verticalAlign=middle;resizable=0;points=[];fontSize=12;" parent="V2A-lgFZdCHgow1j0UfU-20" vertex="1" connectable="0">
          <mxGeometry relative="1" as="geometry">
            <mxPoint x="41" y="5" as="offset" />
          </mxGeometry>
        </mxCell>
        <mxCell id="0YSMYR0BDEywVhF84IDS-26" value="视频驱动器" style="rounded=0;whiteSpace=wrap;html=1;" parent="WIyWlLk6GJQsqaUBKTNV-1" vertex="1">
          <mxGeometry x="970" y="500" width="120" height="60" as="geometry" />
        </mxCell>
        <mxCell id="0YSMYR0BDEywVhF84IDS-16" value="飞控系统" style="text;html=1;align=center;verticalAlign=middle;whiteSpace=wrap;rounded=0;fontSize=16;" parent="WIyWlLk6GJQsqaUBKTNV-1" vertex="1">
          <mxGeometry x="270" y="240" width="90" height="30" as="geometry" />
        </mxCell>
        <mxCell id="0YSMYR0BDEywVhF84IDS-30" value="电机" style="rounded=0;whiteSpace=wrap;html=1;" parent="WIyWlLk6GJQsqaUBKTNV-1" vertex="1">
          <mxGeometry x="1290" y="360" width="120" height="60" as="geometry" />
        </mxCell>
        <mxCell id="0YSMYR0BDEywVhF84IDS-31" value="" style="rounded=0;whiteSpace=wrap;html=1;fillColor=none;dashed=1;strokeWidth=1;" parent="WIyWlLk6GJQsqaUBKTNV-1" vertex="1">
          <mxGeometry x="1120" y="320" width="160" height="200" as="geometry" />
        </mxCell>
        <mxCell id="TnVSL_w9nsZpXG7mcKR7-13" style="edgeStyle=none;curved=0;rounded=0;orthogonalLoop=1;jettySize=auto;html=1;exitX=0.5;exitY=0;exitDx=0;exitDy=0;entryX=0.911;entryY=0.025;entryDx=0;entryDy=0;fontSize=12;startSize=8;endSize=8;entryPerimeter=0;" parent="WIyWlLk6GJQsqaUBKTNV-1" source="0YSMYR0BDEywVhF84IDS-28" target="0YSMYR0BDEywVhF84IDS-23" edge="1">
          <mxGeometry relative="1" as="geometry">
            <Array as="points">
              <mxPoint x="1200" y="350" />
              <mxPoint x="930" y="350" />
              <mxPoint x="930" y="460" />
              <mxPoint x="910" y="460" />
            </Array>
          </mxGeometry>
        </mxCell>
        <mxCell id="TnVSL_w9nsZpXG7mcKR7-14" value="USART" style="edgeLabel;html=1;align=center;verticalAlign=middle;resizable=0;points=[];fontSize=12;" parent="TnVSL_w9nsZpXG7mcKR7-13" vertex="1" connectable="0">
          <mxGeometry relative="1" as="geometry">
            <mxPoint as="offset" />
          </mxGeometry>
        </mxCell>
        <mxCell id="0YSMYR0BDEywVhF84IDS-28" value="电调" style="rounded=0;whiteSpace=wrap;html=1;" parent="WIyWlLk6GJQsqaUBKTNV-1" vertex="1">
          <mxGeometry x="1140" y="360" width="120" height="60" as="geometry" />
        </mxCell>
        <mxCell id="0YSMYR0BDEywVhF84IDS-29" value="电池" style="rounded=0;whiteSpace=wrap;html=1;" parent="WIyWlLk6GJQsqaUBKTNV-1" vertex="1">
          <mxGeometry x="1140" y="440" width="120" height="60" as="geometry" />
        </mxCell>
        <mxCell id="0YSMYR0BDEywVhF84IDS-32" value="电源模块" style="text;html=1;align=center;verticalAlign=middle;whiteSpace=wrap;rounded=0;fontSize=16;" parent="WIyWlLk6GJQsqaUBKTNV-1" vertex="1">
          <mxGeometry x="1120" y="320" width="70" height="30" as="geometry" />
        </mxCell>
        <mxCell id="0YSMYR0BDEywVhF84IDS-36" value="" style="endArrow=none;html=1;rounded=0;fontSize=12;curved=1;" parent="WIyWlLk6GJQsqaUBKTNV-1" edge="1">
          <mxGeometry width="50" height="50" relative="1" as="geometry">
            <mxPoint x="1260" y="389.86" as="sourcePoint" />
            <mxPoint x="1290" y="389.86" as="targetPoint" />
          </mxGeometry>
        </mxCell>
        <mxCell id="0YSMYR0BDEywVhF84IDS-37" value="PWM&amp;nbsp;" style="edgeLabel;html=1;align=center;verticalAlign=middle;resizable=0;points=[];fontSize=12;" parent="0YSMYR0BDEywVhF84IDS-36" vertex="1" connectable="0">
          <mxGeometry relative="1" as="geometry">
            <mxPoint x="3" y="-10" as="offset" />
          </mxGeometry>
        </mxCell>
        <mxCell id="0YSMYR0BDEywVhF84IDS-44" value="" style="endArrow=classic;html=1;rounded=0;fontSize=12;startSize=8;endSize=8;curved=0;entryX=0;entryY=0.5;entryDx=0;entryDy=0;exitX=1;exitY=0.5;exitDx=0;exitDy=0;startArrow=classic;startFill=1;" parent="WIyWlLk6GJQsqaUBKTNV-1" source="0YSMYR0BDEywVhF84IDS-25" target="0YSMYR0BDEywVhF84IDS-23" edge="1">
          <mxGeometry width="50" height="50" relative="1" as="geometry">
            <mxPoint x="887" y="520" as="sourcePoint" />
            <mxPoint x="937" y="470" as="targetPoint" />
            <Array as="points" />
          </mxGeometry>
        </mxCell>
        <mxCell id="0YSMYR0BDEywVhF84IDS-45" value="SPI&amp;nbsp;" style="edgeLabel;html=1;align=center;verticalAlign=middle;resizable=0;points=[];fontSize=12;" parent="0YSMYR0BDEywVhF84IDS-44" vertex="1" connectable="0">
          <mxGeometry relative="1" as="geometry">
            <mxPoint x="-5" y="-9" as="offset" />
          </mxGeometry>
        </mxCell>
        <mxCell id="V2A-lgFZdCHgow1j0UfU-0" style="edgeStyle=none;curved=0;rounded=0;orthogonalLoop=1;jettySize=auto;html=1;entryX=0.5;entryY=0;entryDx=0;entryDy=0;fontSize=12;startSize=8;endSize=8;exitX=0.999;exitY=0.729;exitDx=0;exitDy=0;startArrow=classic;startFill=1;exitPerimeter=0;" parent="WIyWlLk6GJQsqaUBKTNV-1" source="0YSMYR0BDEywVhF84IDS-5" target="0YSMYR0BDEywVhF84IDS-23" edge="1">
          <mxGeometry relative="1" as="geometry">
            <mxPoint x="507" y="440" as="sourcePoint" />
            <Array as="points">
              <mxPoint x="620" y="410" />
              <mxPoint x="620" y="450" />
              <mxPoint x="860" y="450" />
            </Array>
          </mxGeometry>
        </mxCell>
        <mxCell id="V2A-lgFZdCHgow1j0UfU-1" value="SPI" style="edgeLabel;html=1;align=center;verticalAlign=middle;resizable=0;points=[];fontSize=12;" parent="V2A-lgFZdCHgow1j0UfU-0" vertex="1" connectable="0">
          <mxGeometry relative="1" as="geometry">
            <mxPoint as="offset" />
          </mxGeometry>
        </mxCell>
        <mxCell id="V2A-lgFZdCHgow1j0UfU-12" style="edgeStyle=none;curved=0;rounded=0;orthogonalLoop=1;jettySize=auto;html=1;exitX=0.75;exitY=1;exitDx=0;exitDy=0;entryX=0.75;entryY=0;entryDx=0;entryDy=0;fontSize=12;startSize=8;endSize=8;" parent="WIyWlLk6GJQsqaUBKTNV-1" source="0YSMYR0BDEywVhF84IDS-20" target="0YSMYR0BDEywVhF84IDS-23" edge="1">
          <mxGeometry relative="1" as="geometry" />
        </mxCell>
        <mxCell id="V2A-lgFZdCHgow1j0UfU-19" value="图传" style="rounded=0;whiteSpace=wrap;html=1;" parent="WIyWlLk6GJQsqaUBKTNV-1" vertex="1">
          <mxGeometry x="1140" y="640" width="120" height="60" as="geometry" />
        </mxCell>
        <mxCell id="V2A-lgFZdCHgow1j0UfU-24" style="edgeStyle=none;curved=0;rounded=0;orthogonalLoop=1;jettySize=auto;html=1;exitX=0;exitY=0.5;exitDx=0;exitDy=0;entryX=0.993;entryY=0.167;entryDx=0;entryDy=0;fontSize=12;startSize=8;endSize=8;startArrow=classic;startFill=1;entryPerimeter=0;" parent="WIyWlLk6GJQsqaUBKTNV-1" source="V2A-lgFZdCHgow1j0UfU-23" target="0YSMYR0BDEywVhF84IDS-23" edge="1">
          <mxGeometry relative="1" as="geometry">
            <Array as="points">
              <mxPoint x="950" y="460" />
              <mxPoint x="950" y="510" />
            </Array>
          </mxGeometry>
        </mxCell>
        <mxCell id="V2A-lgFZdCHgow1j0UfU-25" value="UART" style="edgeLabel;html=1;align=center;verticalAlign=middle;resizable=0;points=[];fontSize=12;" parent="V2A-lgFZdCHgow1j0UfU-24" vertex="1" connectable="0">
          <mxGeometry relative="1" as="geometry">
            <mxPoint x="-8" y="5" as="offset" />
          </mxGeometry>
        </mxCell>
        <mxCell id="V2A-lgFZdCHgow1j0UfU-23" value="接收机" style="rounded=0;whiteSpace=wrap;html=1;" parent="WIyWlLk6GJQsqaUBKTNV-1" vertex="1">
          <mxGeometry x="970" y="430" width="120" height="60" as="geometry" />
        </mxCell>
        <mxCell id="V2A-lgFZdCHgow1j0UfU-28" style="edgeStyle=none;curved=0;rounded=0;orthogonalLoop=1;jettySize=auto;html=1;exitX=0;exitY=0.5;exitDx=0;exitDy=0;entryX=1;entryY=0.5;entryDx=0;entryDy=0;fontSize=12;startSize=8;endSize=8;startArrow=classic;startFill=1;dashed=1;dashPattern=8 8;" parent="WIyWlLk6GJQsqaUBKTNV-1" source="V2A-lgFZdCHgow1j0UfU-27" target="V2A-lgFZdCHgow1j0UfU-23" edge="1">
          <mxGeometry relative="1" as="geometry">
            <Array as="points">
              <mxPoint x="1140" y="570" />
            </Array>
          </mxGeometry>
        </mxCell>
        <mxCell id="V2A-lgFZdCHgow1j0UfU-29" value="ELRS/SUBS" style="edgeLabel;html=1;align=center;verticalAlign=middle;resizable=0;points=[];fontSize=12;" parent="V2A-lgFZdCHgow1j0UfU-28" vertex="1" connectable="0">
          <mxGeometry relative="1" as="geometry">
            <mxPoint x="56" as="offset" />
          </mxGeometry>
        </mxCell>
        <mxCell id="V2A-lgFZdCHgow1j0UfU-27" value="遥控器&amp;amp;上位机" style="rounded=0;whiteSpace=wrap;html=1;" parent="WIyWlLk6GJQsqaUBKTNV-1" vertex="1">
          <mxGeometry x="1290" y="540" width="120" height="60" as="geometry" />
        </mxCell>
        <mxCell id="TnVSL_w9nsZpXG7mcKR7-1" value="检测系统" style="text;html=1;align=center;verticalAlign=middle;whiteSpace=wrap;rounded=0;fontSize=16;" parent="WIyWlLk6GJQsqaUBKTNV-1" vertex="1">
          <mxGeometry x="290" y="210" width="70" height="30" as="geometry" />
        </mxCell>
        <mxCell id="TnVSL_w9nsZpXG7mcKR7-3" style="edgeStyle=none;curved=1;rounded=0;orthogonalLoop=1;jettySize=auto;html=1;exitX=0.5;exitY=1;exitDx=0;exitDy=0;entryX=0.5;entryY=0;entryDx=0;entryDy=0;fontSize=12;startSize=8;endSize=8;dashed=1;dashPattern=8 8;" parent="WIyWlLk6GJQsqaUBKTNV-1" source="V2A-lgFZdCHgow1j0UfU-19" target="TnVSL_w9nsZpXG7mcKR7-6" edge="1">
          <mxGeometry relative="1" as="geometry">
            <mxPoint x="1198.6399999999999" y="782.1599999999999" as="targetPoint" />
          </mxGeometry>
        </mxCell>
        <mxCell id="TnVSL_w9nsZpXG7mcKR7-5" style="edgeStyle=none;curved=1;rounded=0;orthogonalLoop=1;jettySize=auto;html=1;exitX=0.5;exitY=0;exitDx=0;exitDy=0;fontSize=12;startSize=8;endSize=8;" parent="WIyWlLk6GJQsqaUBKTNV-1" edge="1">
          <mxGeometry relative="1" as="geometry">
            <mxPoint x="1387" y="769.9999999999998" as="sourcePoint" />
            <mxPoint x="1387" y="769.9999999999998" as="targetPoint" />
          </mxGeometry>
        </mxCell>
        <mxCell id="TnVSL_w9nsZpXG7mcKR7-8" value="" style="edgeStyle=none;curved=1;rounded=0;orthogonalLoop=1;jettySize=auto;html=1;fontSize=12;startSize=8;endSize=8;" parent="WIyWlLk6GJQsqaUBKTNV-1" source="TnVSL_w9nsZpXG7mcKR7-6" target="TnVSL_w9nsZpXG7mcKR7-7" edge="1">
          <mxGeometry relative="1" as="geometry" />
        </mxCell>
        <mxCell id="TnVSL_w9nsZpXG7mcKR7-6" value="上位机" style="rounded=0;whiteSpace=wrap;html=1;" parent="WIyWlLk6GJQsqaUBKTNV-1" vertex="1">
          <mxGeometry x="1140" y="810" width="120" height="60" as="geometry" />
        </mxCell>
        <mxCell id="TnVSL_w9nsZpXG7mcKR7-7" value="显示模块" style="whiteSpace=wrap;html=1;rounded=0;" parent="WIyWlLk6GJQsqaUBKTNV-1" vertex="1">
          <mxGeometry x="1140" y="890" width="120" height="60" as="geometry" />
        </mxCell>
        <mxCell id="TnVSL_w9nsZpXG7mcKR7-10" value="上位机部分" style="text;html=1;align=center;verticalAlign=middle;whiteSpace=wrap;rounded=0;fontSize=16;" parent="WIyWlLk6GJQsqaUBKTNV-1" vertex="1">
          <mxGeometry x="1050" y="800" width="90" height="30" as="geometry" />
        </mxCell>
        <mxCell id="TnVSL_w9nsZpXG7mcKR7-11" style="edgeStyle=none;curved=1;rounded=0;orthogonalLoop=1;jettySize=auto;html=1;exitX=0.5;exitY=0;exitDx=0;exitDy=0;fontSize=12;startSize=8;endSize=8;" parent="WIyWlLk6GJQsqaUBKTNV-1" source="0YSMYR0BDEywVhF84IDS-28" target="0YSMYR0BDEywVhF84IDS-28" edge="1">
          <mxGeometry relative="1" as="geometry" />
        </mxCell>
        <mxCell id="TnVSL_w9nsZpXG7mcKR7-16" value="硬件架构" style="text;html=1;align=center;verticalAlign=middle;whiteSpace=wrap;rounded=0;fontSize=16;" parent="WIyWlLk6GJQsqaUBKTNV-1" vertex="1">
          <mxGeometry x="787" y="1000" width="80" height="30" as="geometry" />
        </mxCell>
        <mxCell id="TnVSL_w9nsZpXG7mcKR7-18" value="其他设备" style="text;html=1;align=center;verticalAlign=middle;whiteSpace=wrap;rounded=0;fontSize=16;" parent="WIyWlLk6GJQsqaUBKTNV-1" vertex="1">
          <mxGeometry x="1110" y="240" width="80" height="30" as="geometry" />
        </mxCell>
        <mxCell id="TnVSL_w9nsZpXG7mcKR7-19" style="edgeStyle=none;curved=1;rounded=0;orthogonalLoop=1;jettySize=auto;html=1;exitX=0.5;exitY=1;exitDx=0;exitDy=0;fontSize=12;startSize=8;endSize=8;" parent="WIyWlLk6GJQsqaUBKTNV-1" source="TnVSL_w9nsZpXG7mcKR7-18" target="TnVSL_w9nsZpXG7mcKR7-18" edge="1">
          <mxGeometry relative="1" as="geometry" />
        </mxCell>
        <mxCell id="0YSMYR0BDEywVhF84IDS-5" value="" style="rounded=0;whiteSpace=wrap;html=1;fillColor=none;" parent="WIyWlLk6GJQsqaUBKTNV-1" vertex="1">
          <mxGeometry x="290" y="330" width="300" height="110" as="geometry" />
        </mxCell>
        <mxCell id="0YSMYR0BDEywVhF84IDS-6" value="IMU模块" style="text;html=1;align=center;verticalAlign=middle;whiteSpace=wrap;rounded=0;fontSize=16;" parent="WIyWlLk6GJQsqaUBKTNV-1" vertex="1">
          <mxGeometry x="290" y="330" width="70" height="30" as="geometry" />
        </mxCell>
        <mxCell id="0YSMYR0BDEywVhF84IDS-7" value="加速度计" style="rounded=0;whiteSpace=wrap;html=1;" parent="WIyWlLk6GJQsqaUBKTNV-1" vertex="1">
          <mxGeometry x="450" y="360" width="120" height="60" as="geometry" />
        </mxCell>
        <mxCell id="0YSMYR0BDEywVhF84IDS-8" value="陀螺仪" style="rounded=0;whiteSpace=wrap;html=1;" parent="WIyWlLk6GJQsqaUBKTNV-1" vertex="1">
          <mxGeometry x="310" y="360" width="120" height="60" as="geometry" />
        </mxCell>
      </root>
    </mxGraphModel>
  </diagram>
  <diagram id="7jk8ZJs5iwjiGZXWGJKZ" name="软件控制流程图">
    <mxGraphModel dx="3449" dy="2454" grid="1" gridSize="10" guides="1" tooltips="1" connect="1" arrows="1" fold="1" page="1" pageScale="1" pageWidth="1169" pageHeight="1654" background="none" math="1" shadow="0">
      <root>
        <mxCell id="0" />
        <mxCell id="1" parent="0" />
        <mxCell id="w_dKEn0cU2W3Prh6kk5N-1" value="" style="rounded=1;whiteSpace=wrap;html=1;fillColor=none;dashed=1;arcSize=3;" parent="1" vertex="1">
          <mxGeometry x="88" y="1810" width="994" height="850" as="geometry" />
        </mxCell>
        <mxCell id="rVAHL7_RWKZW1T58zfoD-30" value="" style="rounded=1;whiteSpace=wrap;html=1;fillColor=none;dashed=1;arcSize=5;" parent="1" vertex="1">
          <mxGeometry x="304" y="1840" width="560" height="340" as="geometry" />
        </mxCell>
        <mxCell id="smks-QdOnxBjkIpPTdev-79" value="YＯLＯv3&lt;br&gt;单帧目标检测算法" style="whiteSpace=wrap;html=1;" parent="1" vertex="1">
          <mxGeometry x="454" y="1860" width="120" height="60" as="geometry" />
        </mxCell>
        <mxCell id="w_dKEn0cU2W3Prh6kk5N-23" value="" style="rounded=1;whiteSpace=wrap;html=1;fillColor=none;dashed=1;arcSize=8;" parent="1" vertex="1">
          <mxGeometry x="734" y="267" width="310" height="1120" as="geometry" />
        </mxCell>
        <mxCell id="w_dKEn0cU2W3Prh6kk5N-3" value="" style="rounded=1;whiteSpace=wrap;html=1;fillColor=none;dashed=1;arcSize=6;" parent="1" vertex="1">
          <mxGeometry x="124" y="402" width="500" height="850" as="geometry" />
        </mxCell>
        <mxCell id="rVAHL7_RWKZW1T58zfoD-28" value="" style="rounded=1;whiteSpace=wrap;html=1;fillColor=none;dashed=1;arcSize=8;" parent="1" vertex="1">
          <mxGeometry x="240" y="2320" width="811" height="170" as="geometry" />
        </mxCell>
        <mxCell id="CilWWsRJ8J9FldTJaQo6-6" style="edgeStyle=none;curved=1;rounded=0;orthogonalLoop=1;jettySize=auto;html=1;exitX=0.5;exitY=1;exitDx=0;exitDy=0;entryX=0.5;entryY=0;entryDx=0;entryDy=0;fontSize=12;startSize=8;endSize=8;" parent="1" source="CilWWsRJ8J9FldTJaQo6-1" target="CilWWsRJ8J9FldTJaQo6-5" edge="1">
          <mxGeometry relative="1" as="geometry" />
        </mxCell>
        <mxCell id="CilWWsRJ8J9FldTJaQo6-1" value="开始" style="rounded=1;whiteSpace=wrap;html=1;arcSize=50;" parent="1" vertex="1">
          <mxGeometry x="314" y="412" width="120" height="60" as="geometry" />
        </mxCell>
        <mxCell id="CilWWsRJ8J9FldTJaQo6-4" value="结束" style="rounded=1;whiteSpace=wrap;html=1;arcSize=50;" parent="1" vertex="1">
          <mxGeometry x="314" y="1172" width="120" height="60" as="geometry" />
        </mxCell>
        <mxCell id="Ea9iT0A6i0U-_SVe9fDM-36" style="edgeStyle=none;curved=1;rounded=0;orthogonalLoop=1;jettySize=auto;html=1;exitX=0.5;exitY=1;exitDx=0;exitDy=0;fontSize=12;startSize=8;endSize=8;" parent="1" source="CilWWsRJ8J9FldTJaQo6-5" edge="1">
          <mxGeometry relative="1" as="geometry">
            <mxPoint x="374" y="567" as="targetPoint" />
          </mxGeometry>
        </mxCell>
        <mxCell id="CilWWsRJ8J9FldTJaQo6-5" value="&lt;span style=&quot;color: rgb(44, 44, 54); font-family: -apple-system, BlinkMacSystemFont, &amp;quot;Segoe UI&amp;quot;, &amp;quot;Noto Sans&amp;quot;, Helvetica, Arial, sans-serif, &amp;quot;Apple Color Emoji&amp;quot;, &amp;quot;Segoe UI Emoji&amp;quot;; font-size: 16px; text-align: left; background-color: rgb(255, 255, 255);&quot;&gt;上电自检&lt;/span&gt;" style="rounded=0;whiteSpace=wrap;html=1;" parent="1" vertex="1">
          <mxGeometry x="314" y="492" width="120" height="60" as="geometry" />
        </mxCell>
        <mxCell id="Ea9iT0A6i0U-_SVe9fDM-4" style="edgeStyle=none;curved=0;rounded=0;orthogonalLoop=1;jettySize=auto;html=1;exitX=1;exitY=0.5;exitDx=0;exitDy=0;fontSize=12;startSize=8;endSize=8;entryX=0;entryY=0.5;entryDx=0;entryDy=0;" parent="1" source="Ea9iT0A6i0U-_SVe9fDM-2" target="Ea9iT0A6i0U-_SVe9fDM-69" edge="1">
          <mxGeometry relative="1" as="geometry">
            <mxPoint x="499" y="707" as="targetPoint" />
          </mxGeometry>
        </mxCell>
        <mxCell id="Ea9iT0A6i0U-_SVe9fDM-8" value="否" style="edgeLabel;html=1;align=center;verticalAlign=middle;resizable=0;points=[];fontSize=12;" parent="Ea9iT0A6i0U-_SVe9fDM-4" vertex="1" connectable="0">
          <mxGeometry relative="1" as="geometry">
            <mxPoint x="-9" as="offset" />
          </mxGeometry>
        </mxCell>
        <mxCell id="Ea9iT0A6i0U-_SVe9fDM-12" style="edgeStyle=none;curved=1;rounded=0;orthogonalLoop=1;jettySize=auto;html=1;exitX=0.5;exitY=1;exitDx=0;exitDy=0;fontSize=12;startSize=8;endSize=8;entryX=0.5;entryY=0;entryDx=0;entryDy=0;" parent="1" source="Ea9iT0A6i0U-_SVe9fDM-2" target="w_dKEn0cU2W3Prh6kk5N-14" edge="1">
          <mxGeometry relative="1" as="geometry">
            <mxPoint x="369" y="1092" as="targetPoint" />
          </mxGeometry>
        </mxCell>
        <mxCell id="Ea9iT0A6i0U-_SVe9fDM-47" style="edgeStyle=none;curved=1;rounded=0;orthogonalLoop=1;jettySize=auto;html=1;exitX=0.5;exitY=0;exitDx=0;exitDy=0;fontSize=12;startSize=8;endSize=8;endArrow=none;endFill=0;startArrow=classic;startFill=1;" parent="1" source="Ea9iT0A6i0U-_SVe9fDM-2" edge="1">
          <mxGeometry relative="1" as="geometry">
            <mxPoint x="374" y="647" as="targetPoint" />
          </mxGeometry>
        </mxCell>
        <mxCell id="smks-QdOnxBjkIpPTdev-61" style="edgeStyle=none;curved=1;rounded=0;orthogonalLoop=1;jettySize=auto;html=1;exitX=0;exitY=0.5;exitDx=0;exitDy=0;entryX=0;entryY=0.5;entryDx=0;entryDy=0;fontSize=12;startSize=8;endSize=8;" parent="1" source="Ea9iT0A6i0U-_SVe9fDM-2" target="smks-QdOnxBjkIpPTdev-52" edge="1">
          <mxGeometry relative="1" as="geometry">
            <Array as="points">
              <mxPoint x="184" y="732" />
              <mxPoint x="184" y="972" />
            </Array>
          </mxGeometry>
        </mxCell>
        <mxCell id="Ea9iT0A6i0U-_SVe9fDM-2" value="飞控板各个模块是否正常" style="rhombus;whiteSpace=wrap;html=1;" parent="1" vertex="1">
          <mxGeometry x="294" y="672" width="160" height="80" as="geometry" />
        </mxCell>
        <mxCell id="Ea9iT0A6i0U-_SVe9fDM-13" value="摄像头" style="rounded=0;whiteSpace=wrap;html=1;" parent="1" vertex="1">
          <mxGeometry x="134" y="592" width="60" height="40" as="geometry" />
        </mxCell>
        <mxCell id="Ea9iT0A6i0U-_SVe9fDM-15" value="加速度计" style="rounded=0;whiteSpace=wrap;html=1;" parent="1" vertex="1">
          <mxGeometry x="194" y="592" width="60" height="40" as="geometry" />
        </mxCell>
        <mxCell id="Ea9iT0A6i0U-_SVe9fDM-17" value="陀螺仪" style="rounded=0;whiteSpace=wrap;html=1;" parent="1" vertex="1">
          <mxGeometry x="254" y="592" width="60" height="40" as="geometry" />
        </mxCell>
        <mxCell id="Ea9iT0A6i0U-_SVe9fDM-18" value="气压计" style="rounded=0;whiteSpace=wrap;html=1;" parent="1" vertex="1">
          <mxGeometry x="314" y="592" width="60" height="40" as="geometry" />
        </mxCell>
        <mxCell id="Ea9iT0A6i0U-_SVe9fDM-19" value="GPS" style="rounded=0;whiteSpace=wrap;html=1;" parent="1" vertex="1">
          <mxGeometry x="374" y="592" width="60" height="40" as="geometry" />
        </mxCell>
        <mxCell id="Ea9iT0A6i0U-_SVe9fDM-20" value="磁力计" style="rounded=0;whiteSpace=wrap;html=1;" parent="1" vertex="1">
          <mxGeometry x="434" y="592" width="60" height="40" as="geometry" />
        </mxCell>
        <mxCell id="Ea9iT0A6i0U-_SVe9fDM-21" value="飞控" style="rounded=0;whiteSpace=wrap;html=1;" parent="1" vertex="1">
          <mxGeometry x="494" y="592" width="60" height="40" as="geometry" />
        </mxCell>
        <mxCell id="Ea9iT0A6i0U-_SVe9fDM-22" value="电调" style="rounded=0;whiteSpace=wrap;html=1;" parent="1" vertex="1">
          <mxGeometry x="554" y="592" width="60" height="40" as="geometry" />
        </mxCell>
        <mxCell id="Ea9iT0A6i0U-_SVe9fDM-24" value="" style="endArrow=none;html=1;rounded=0;fontSize=12;startSize=8;endSize=8;curved=1;" parent="1" edge="1">
          <mxGeometry width="50" height="50" relative="1" as="geometry">
            <mxPoint x="164" y="567" as="sourcePoint" />
            <mxPoint x="584" y="567" as="targetPoint" />
          </mxGeometry>
        </mxCell>
        <mxCell id="Ea9iT0A6i0U-_SVe9fDM-25" value="" style="endArrow=classic;html=1;rounded=0;fontSize=12;startSize=8;endSize=8;curved=1;entryX=0.5;entryY=0;entryDx=0;entryDy=0;" parent="1" target="Ea9iT0A6i0U-_SVe9fDM-13" edge="1">
          <mxGeometry width="50" height="50" relative="1" as="geometry">
            <mxPoint x="164" y="567" as="sourcePoint" />
            <mxPoint x="163.64" y="587" as="targetPoint" />
          </mxGeometry>
        </mxCell>
        <mxCell id="Ea9iT0A6i0U-_SVe9fDM-27" value="" style="endArrow=classic;html=1;rounded=0;fontSize=12;startSize=8;endSize=8;curved=1;entryX=0.5;entryY=0;entryDx=0;entryDy=0;" parent="1" target="Ea9iT0A6i0U-_SVe9fDM-15" edge="1">
          <mxGeometry width="50" height="50" relative="1" as="geometry">
            <mxPoint x="224" y="567" as="sourcePoint" />
            <mxPoint x="224" y="587" as="targetPoint" />
          </mxGeometry>
        </mxCell>
        <mxCell id="Ea9iT0A6i0U-_SVe9fDM-28" value="" style="endArrow=classic;html=1;rounded=0;fontSize=12;startSize=8;endSize=8;curved=1;entryX=0.5;entryY=0;entryDx=0;entryDy=0;" parent="1" target="Ea9iT0A6i0U-_SVe9fDM-17" edge="1">
          <mxGeometry width="50" height="50" relative="1" as="geometry">
            <mxPoint x="284" y="567" as="sourcePoint" />
            <mxPoint x="283.64" y="587" as="targetPoint" />
          </mxGeometry>
        </mxCell>
        <mxCell id="Ea9iT0A6i0U-_SVe9fDM-30" value="" style="endArrow=classic;html=1;rounded=0;fontSize=12;startSize=8;endSize=8;curved=1;entryX=0.5;entryY=0;entryDx=0;entryDy=0;" parent="1" target="Ea9iT0A6i0U-_SVe9fDM-20" edge="1">
          <mxGeometry width="50" height="50" relative="1" as="geometry">
            <mxPoint x="464" y="567" as="sourcePoint" />
            <mxPoint x="463.64" y="587" as="targetPoint" />
          </mxGeometry>
        </mxCell>
        <mxCell id="Ea9iT0A6i0U-_SVe9fDM-31" value="" style="endArrow=classic;html=1;rounded=0;fontSize=12;startSize=8;endSize=8;curved=1;entryX=0.5;entryY=0;entryDx=0;entryDy=0;" parent="1" target="Ea9iT0A6i0U-_SVe9fDM-19" edge="1">
          <mxGeometry width="50" height="50" relative="1" as="geometry">
            <mxPoint x="404" y="567" as="sourcePoint" />
            <mxPoint x="403.64" y="587" as="targetPoint" />
          </mxGeometry>
        </mxCell>
        <mxCell id="Ea9iT0A6i0U-_SVe9fDM-32" value="" style="endArrow=classic;html=1;rounded=0;fontSize=12;startSize=8;endSize=8;curved=1;entryX=0.5;entryY=0;entryDx=0;entryDy=0;" parent="1" target="Ea9iT0A6i0U-_SVe9fDM-18" edge="1">
          <mxGeometry width="50" height="50" relative="1" as="geometry">
            <mxPoint x="344" y="567" as="sourcePoint" />
            <mxPoint x="343.64" y="587" as="targetPoint" />
          </mxGeometry>
        </mxCell>
        <mxCell id="Ea9iT0A6i0U-_SVe9fDM-34" value="" style="endArrow=classic;html=1;rounded=0;fontSize=12;startSize=8;endSize=8;curved=1;entryX=0.5;entryY=0;entryDx=0;entryDy=0;" parent="1" target="Ea9iT0A6i0U-_SVe9fDM-22" edge="1">
          <mxGeometry width="50" height="50" relative="1" as="geometry">
            <mxPoint x="584" y="567" as="sourcePoint" />
            <mxPoint x="583.64" y="587" as="targetPoint" />
          </mxGeometry>
        </mxCell>
        <mxCell id="Ea9iT0A6i0U-_SVe9fDM-35" value="" style="endArrow=classic;html=1;rounded=0;fontSize=12;startSize=8;endSize=8;curved=1;entryX=0.5;entryY=0;entryDx=0;entryDy=0;" parent="1" target="Ea9iT0A6i0U-_SVe9fDM-21" edge="1">
          <mxGeometry width="50" height="50" relative="1" as="geometry">
            <mxPoint x="524" y="567" as="sourcePoint" />
            <mxPoint x="523.64" y="587" as="targetPoint" />
          </mxGeometry>
        </mxCell>
        <mxCell id="Ea9iT0A6i0U-_SVe9fDM-38" value="" style="endArrow=none;html=1;rounded=0;fontSize=12;startSize=8;endSize=8;curved=1;" parent="1" edge="1">
          <mxGeometry width="50" height="50" relative="1" as="geometry">
            <mxPoint x="163.47000000000003" y="647" as="sourcePoint" />
            <mxPoint x="583.47" y="647" as="targetPoint" />
          </mxGeometry>
        </mxCell>
        <mxCell id="Ea9iT0A6i0U-_SVe9fDM-39" value="" style="endArrow=classic;html=1;rounded=0;fontSize=12;startSize=8;endSize=8;curved=1;exitX=0.5;exitY=1;exitDx=0;exitDy=0;" parent="1" source="Ea9iT0A6i0U-_SVe9fDM-13" edge="1">
          <mxGeometry width="50" height="50" relative="1" as="geometry">
            <mxPoint x="163.74" y="617" as="sourcePoint" />
            <mxPoint x="163.74" y="647" as="targetPoint" />
          </mxGeometry>
        </mxCell>
        <mxCell id="Ea9iT0A6i0U-_SVe9fDM-40" value="" style="endArrow=classic;html=1;rounded=0;fontSize=12;startSize=8;endSize=8;curved=1;exitX=0.5;exitY=1;exitDx=0;exitDy=0;" parent="1" source="Ea9iT0A6i0U-_SVe9fDM-15" edge="1">
          <mxGeometry width="50" height="50" relative="1" as="geometry">
            <mxPoint x="223.74" y="617" as="sourcePoint" />
            <mxPoint x="223.74" y="647" as="targetPoint" />
          </mxGeometry>
        </mxCell>
        <mxCell id="Ea9iT0A6i0U-_SVe9fDM-41" value="" style="endArrow=classic;html=1;rounded=0;fontSize=12;startSize=8;endSize=8;curved=1;exitX=0.5;exitY=1;exitDx=0;exitDy=0;" parent="1" source="Ea9iT0A6i0U-_SVe9fDM-17" edge="1">
          <mxGeometry width="50" height="50" relative="1" as="geometry">
            <mxPoint x="283.74" y="617" as="sourcePoint" />
            <mxPoint x="283.74" y="647" as="targetPoint" />
          </mxGeometry>
        </mxCell>
        <mxCell id="Ea9iT0A6i0U-_SVe9fDM-42" value="" style="endArrow=classic;html=1;rounded=0;fontSize=12;startSize=8;endSize=8;curved=1;exitX=0.5;exitY=1;exitDx=0;exitDy=0;" parent="1" source="Ea9iT0A6i0U-_SVe9fDM-20" edge="1">
          <mxGeometry width="50" height="50" relative="1" as="geometry">
            <mxPoint x="464" y="627" as="sourcePoint" />
            <mxPoint x="463.74" y="647" as="targetPoint" />
          </mxGeometry>
        </mxCell>
        <mxCell id="Ea9iT0A6i0U-_SVe9fDM-43" value="" style="endArrow=classic;html=1;rounded=0;fontSize=12;startSize=8;endSize=8;curved=1;exitX=0.5;exitY=1;exitDx=0;exitDy=0;" parent="1" source="Ea9iT0A6i0U-_SVe9fDM-19" edge="1">
          <mxGeometry width="50" height="50" relative="1" as="geometry">
            <mxPoint x="403.74" y="617" as="sourcePoint" />
            <mxPoint x="403.74" y="647" as="targetPoint" />
          </mxGeometry>
        </mxCell>
        <mxCell id="Ea9iT0A6i0U-_SVe9fDM-44" value="" style="endArrow=classic;html=1;rounded=0;fontSize=12;startSize=8;endSize=8;curved=1;exitX=0.5;exitY=1;exitDx=0;exitDy=0;" parent="1" source="Ea9iT0A6i0U-_SVe9fDM-18" edge="1">
          <mxGeometry width="50" height="50" relative="1" as="geometry">
            <mxPoint x="343.74" y="617" as="sourcePoint" />
            <mxPoint x="343.74" y="647" as="targetPoint" />
          </mxGeometry>
        </mxCell>
        <mxCell id="Ea9iT0A6i0U-_SVe9fDM-45" value="" style="endArrow=classic;html=1;rounded=0;fontSize=12;startSize=8;endSize=8;curved=1;exitX=0.5;exitY=1;exitDx=0;exitDy=0;" parent="1" source="Ea9iT0A6i0U-_SVe9fDM-22" edge="1">
          <mxGeometry width="50" height="50" relative="1" as="geometry">
            <mxPoint x="584" y="627" as="sourcePoint" />
            <mxPoint x="583.74" y="647" as="targetPoint" />
          </mxGeometry>
        </mxCell>
        <mxCell id="Ea9iT0A6i0U-_SVe9fDM-46" value="" style="endArrow=classic;html=1;rounded=0;fontSize=12;startSize=8;endSize=8;curved=1;exitX=0.5;exitY=1;exitDx=0;exitDy=0;" parent="1" source="Ea9iT0A6i0U-_SVe9fDM-21" edge="1">
          <mxGeometry width="50" height="50" relative="1" as="geometry">
            <mxPoint x="523.74" y="617" as="sourcePoint" />
            <mxPoint x="523.74" y="647" as="targetPoint" />
          </mxGeometry>
        </mxCell>
        <mxCell id="Ea9iT0A6i0U-_SVe9fDM-65" style="edgeStyle=none;curved=1;rounded=0;orthogonalLoop=1;jettySize=auto;html=1;exitX=0.5;exitY=1;exitDx=0;exitDy=0;fontSize=12;startSize=8;endSize=8;entryX=0.5;entryY=0;entryDx=0;entryDy=0;" parent="1" source="Ea9iT0A6i0U-_SVe9fDM-63" target="CilWWsRJ8J9FldTJaQo6-4" edge="1">
          <mxGeometry relative="1" as="geometry">
            <mxPoint x="364" y="1177" as="targetPoint" />
          </mxGeometry>
        </mxCell>
        <mxCell id="Ea9iT0A6i0U-_SVe9fDM-67" value="完成任务" style="edgeLabel;html=1;align=center;verticalAlign=middle;resizable=0;points=[];fontSize=12;" parent="Ea9iT0A6i0U-_SVe9fDM-65" vertex="1" connectable="0">
          <mxGeometry relative="1" as="geometry">
            <mxPoint as="offset" />
          </mxGeometry>
        </mxCell>
        <mxCell id="Ea9iT0A6i0U-_SVe9fDM-66" style="edgeStyle=none;curved=0;rounded=0;orthogonalLoop=1;jettySize=auto;html=1;fontSize=12;startSize=8;endSize=8;exitX=1;exitY=0.5;exitDx=0;exitDy=0;entryX=0.5;entryY=1;entryDx=0;entryDy=0;" parent="1" source="Ea9iT0A6i0U-_SVe9fDM-63" target="smks-QdOnxBjkIpPTdev-54" edge="1">
          <mxGeometry relative="1" as="geometry">
            <mxPoint x="369" y="1032" as="targetPoint" />
            <Array as="points">
              <mxPoint x="524" y="1092" />
            </Array>
            <mxPoint x="429" y="1082" as="sourcePoint" />
          </mxGeometry>
        </mxCell>
        <mxCell id="Ea9iT0A6i0U-_SVe9fDM-68" value="未完成任务" style="edgeLabel;html=1;align=center;verticalAlign=middle;resizable=0;points=[];fontSize=12;" parent="Ea9iT0A6i0U-_SVe9fDM-66" vertex="1" connectable="0">
          <mxGeometry relative="1" as="geometry">
            <mxPoint x="-45" y="-10" as="offset" />
          </mxGeometry>
        </mxCell>
        <mxCell id="Ea9iT0A6i0U-_SVe9fDM-63" value="执行预设程序" style="rhombus;whiteSpace=wrap;html=1;" parent="1" vertex="1">
          <mxGeometry x="304" y="1052" width="140" height="80" as="geometry" />
        </mxCell>
        <mxCell id="smks-QdOnxBjkIpPTdev-59" style="edgeStyle=none;curved=1;rounded=0;orthogonalLoop=1;jettySize=auto;html=1;exitX=0.5;exitY=1;exitDx=0;exitDy=0;entryX=1;entryY=0.5;entryDx=0;entryDy=0;fontSize=12;startSize=8;endSize=8;" parent="1" source="Ea9iT0A6i0U-_SVe9fDM-69" target="CilWWsRJ8J9FldTJaQo6-4" edge="1">
          <mxGeometry relative="1" as="geometry">
            <Array as="points">
              <mxPoint x="704" y="1072" />
            </Array>
          </mxGeometry>
        </mxCell>
        <mxCell id="Ea9iT0A6i0U-_SVe9fDM-69" value="记录错误数据" style="shape=parallelogram;perimeter=parallelogramPerimeter;whiteSpace=wrap;html=1;fixedSize=1;" parent="1" vertex="1">
          <mxGeometry x="494" y="682" width="120" height="60" as="geometry" />
        </mxCell>
        <mxCell id="smks-QdOnxBjkIpPTdev-21" style="edgeStyle=none;curved=1;rounded=0;orthogonalLoop=1;jettySize=auto;html=1;exitX=0.5;exitY=1;exitDx=0;exitDy=0;entryX=0.5;entryY=0;entryDx=0;entryDy=0;fontSize=12;startSize=8;endSize=8;" parent="1" source="smks-QdOnxBjkIpPTdev-17" target="smks-QdOnxBjkIpPTdev-20" edge="1">
          <mxGeometry relative="1" as="geometry" />
        </mxCell>
        <mxCell id="smks-QdOnxBjkIpPTdev-17" value="设定飞行目标" style="rounded=0;whiteSpace=wrap;html=1;" parent="1" vertex="1">
          <mxGeometry x="894" y="357" width="120" height="60" as="geometry" />
        </mxCell>
        <mxCell id="smks-QdOnxBjkIpPTdev-23" style="edgeStyle=none;curved=1;rounded=0;orthogonalLoop=1;jettySize=auto;html=1;exitX=0.5;exitY=1;exitDx=0;exitDy=0;fontSize=12;startSize=8;endSize=8;" parent="1" source="smks-QdOnxBjkIpPTdev-20" target="smks-QdOnxBjkIpPTdev-22" edge="1">
          <mxGeometry relative="1" as="geometry" />
        </mxCell>
        <mxCell id="smks-QdOnxBjkIpPTdev-20" value="轨迹规划" style="whiteSpace=wrap;html=1;" parent="1" vertex="1">
          <mxGeometry x="894" y="437" width="120" height="60" as="geometry" />
        </mxCell>
        <mxCell id="smks-QdOnxBjkIpPTdev-66" style="edgeStyle=none;curved=1;rounded=0;orthogonalLoop=1;jettySize=auto;html=1;exitX=0.5;exitY=1;exitDx=0;exitDy=0;entryX=0.5;entryY=0;entryDx=0;entryDy=0;fontSize=12;startSize=8;endSize=8;" parent="1" source="smks-QdOnxBjkIpPTdev-22" target="smks-QdOnxBjkIpPTdev-24" edge="1">
          <mxGeometry relative="1" as="geometry" />
        </mxCell>
        <mxCell id="smks-QdOnxBjkIpPTdev-22" value="目标状态计算" style="whiteSpace=wrap;html=1;" parent="1" vertex="1">
          <mxGeometry x="894" y="517" width="120" height="60" as="geometry" />
        </mxCell>
        <mxCell id="smks-QdOnxBjkIpPTdev-30" style="edgeStyle=none;curved=1;rounded=0;orthogonalLoop=1;jettySize=auto;html=1;exitX=0.5;exitY=1;exitDx=0;exitDy=0;fontSize=12;startSize=8;endSize=8;" parent="1" source="smks-QdOnxBjkIpPTdev-24" target="smks-QdOnxBjkIpPTdev-26" edge="1">
          <mxGeometry relative="1" as="geometry" />
        </mxCell>
        <mxCell id="smks-QdOnxBjkIpPTdev-43" style="edgeStyle=none;curved=0;rounded=0;orthogonalLoop=1;jettySize=auto;html=1;exitX=0;exitY=0.5;exitDx=0;exitDy=0;entryX=0.5;entryY=0;entryDx=0;entryDy=0;fontSize=12;startSize=8;endSize=8;" parent="1" source="smks-QdOnxBjkIpPTdev-24" target="smks-QdOnxBjkIpPTdev-27" edge="1">
          <mxGeometry relative="1" as="geometry">
            <mxPoint x="800" y="732" as="targetPoint" />
            <Array as="points">
              <mxPoint x="814" y="627" />
            </Array>
          </mxGeometry>
        </mxCell>
        <mxCell id="smks-QdOnxBjkIpPTdev-24" value="PID控制器" style="whiteSpace=wrap;html=1;" parent="1" vertex="1">
          <mxGeometry x="894" y="597" width="120" height="60" as="geometry" />
        </mxCell>
        <mxCell id="smks-QdOnxBjkIpPTdev-34" style="edgeStyle=none;curved=1;rounded=0;orthogonalLoop=1;jettySize=auto;html=1;exitX=0.5;exitY=1;exitDx=0;exitDy=0;entryX=0.5;entryY=0;entryDx=0;entryDy=0;fontSize=12;startSize=8;endSize=8;" parent="1" source="smks-QdOnxBjkIpPTdev-26" target="smks-QdOnxBjkIpPTdev-31" edge="1">
          <mxGeometry relative="1" as="geometry" />
        </mxCell>
        <mxCell id="smks-QdOnxBjkIpPTdev-26" value="高度误差计算" style="whiteSpace=wrap;html=1;" parent="1" vertex="1">
          <mxGeometry x="894" y="677" width="120" height="60" as="geometry" />
        </mxCell>
        <mxCell id="smks-QdOnxBjkIpPTdev-39" style="edgeStyle=none;curved=1;rounded=0;orthogonalLoop=1;jettySize=auto;html=1;exitX=0.5;exitY=1;exitDx=0;exitDy=0;entryX=0.5;entryY=0;entryDx=0;entryDy=0;fontSize=12;startSize=8;endSize=8;" parent="1" source="smks-QdOnxBjkIpPTdev-38" edge="1">
          <mxGeometry relative="1" as="geometry">
            <mxPoint x="794.6700000000001" y="732.4099999999999" as="sourcePoint" />
            <mxPoint x="794.6700000000001" y="772.4099999999999" as="targetPoint" />
          </mxGeometry>
        </mxCell>
        <mxCell id="w_dKEn0cU2W3Prh6kk5N-22" style="edgeStyle=none;curved=1;rounded=0;orthogonalLoop=1;jettySize=auto;html=1;exitX=0.5;exitY=1;exitDx=0;exitDy=0;fontSize=12;startSize=8;endSize=8;" parent="1" source="smks-QdOnxBjkIpPTdev-27" target="smks-QdOnxBjkIpPTdev-38" edge="1">
          <mxGeometry relative="1" as="geometry" />
        </mxCell>
        <mxCell id="smks-QdOnxBjkIpPTdev-27" value="航线误差计算" style="whiteSpace=wrap;html=1;" parent="1" vertex="1">
          <mxGeometry x="754" y="677" width="120" height="60" as="geometry" />
        </mxCell>
        <mxCell id="smks-QdOnxBjkIpPTdev-35" style="edgeStyle=none;curved=1;rounded=0;orthogonalLoop=1;jettySize=auto;html=1;exitX=0.5;exitY=1;exitDx=0;exitDy=0;entryX=0.5;entryY=0;entryDx=0;entryDy=0;fontSize=12;startSize=8;endSize=8;" parent="1" source="smks-QdOnxBjkIpPTdev-31" target="smks-QdOnxBjkIpPTdev-32" edge="1">
          <mxGeometry relative="1" as="geometry" />
        </mxCell>
        <mxCell id="smks-QdOnxBjkIpPTdev-31" value="高度PID调节" style="whiteSpace=wrap;html=1;" parent="1" vertex="1">
          <mxGeometry x="894" y="757" width="120" height="60" as="geometry" />
        </mxCell>
        <mxCell id="smks-QdOnxBjkIpPTdev-37" value="" style="edgeStyle=none;curved=1;rounded=0;orthogonalLoop=1;jettySize=auto;html=1;fontSize=12;startSize=8;endSize=8;" parent="1" source="smks-QdOnxBjkIpPTdev-32" target="smks-QdOnxBjkIpPTdev-36" edge="1">
          <mxGeometry relative="1" as="geometry" />
        </mxCell>
        <mxCell id="smks-QdOnxBjkIpPTdev-32" value="输出控制指令" style="whiteSpace=wrap;html=1;" parent="1" vertex="1">
          <mxGeometry x="894" y="837" width="120" height="60" as="geometry" />
        </mxCell>
        <mxCell id="smks-QdOnxBjkIpPTdev-45" value="" style="edgeStyle=none;curved=1;rounded=0;orthogonalLoop=1;jettySize=auto;html=1;fontSize=12;startSize=8;endSize=8;" parent="1" source="smks-QdOnxBjkIpPTdev-36" target="smks-QdOnxBjkIpPTdev-44" edge="1">
          <mxGeometry relative="1" as="geometry" />
        </mxCell>
        <mxCell id="smks-QdOnxBjkIpPTdev-36" value="混合控制器" style="whiteSpace=wrap;html=1;" parent="1" vertex="1">
          <mxGeometry x="894" y="907" width="120" height="60" as="geometry" />
        </mxCell>
        <mxCell id="smks-QdOnxBjkIpPTdev-42" style="edgeStyle=none;curved=0;rounded=0;orthogonalLoop=1;jettySize=auto;html=1;exitX=0.5;exitY=1;exitDx=0;exitDy=0;entryX=0;entryY=0.5;entryDx=0;entryDy=0;fontSize=12;startSize=8;endSize=8;" parent="1" source="smks-QdOnxBjkIpPTdev-40" target="smks-QdOnxBjkIpPTdev-36" edge="1">
          <mxGeometry relative="1" as="geometry">
            <mxPoint x="800" y="992" as="sourcePoint" />
            <Array as="points">
              <mxPoint x="814" y="937" />
            </Array>
          </mxGeometry>
        </mxCell>
        <mxCell id="smks-QdOnxBjkIpPTdev-40" value="输出控制指令" style="whiteSpace=wrap;html=1;" parent="1" vertex="1">
          <mxGeometry x="754" y="837" width="120" height="60" as="geometry" />
        </mxCell>
        <mxCell id="smks-QdOnxBjkIpPTdev-47" value="" style="edgeStyle=none;curved=1;rounded=0;orthogonalLoop=1;jettySize=auto;html=1;fontSize=12;startSize=8;endSize=8;" parent="1" source="smks-QdOnxBjkIpPTdev-44" target="smks-QdOnxBjkIpPTdev-46" edge="1">
          <mxGeometry relative="1" as="geometry" />
        </mxCell>
        <mxCell id="smks-QdOnxBjkIpPTdev-44" value="电调控制指令生成" style="whiteSpace=wrap;html=1;" parent="1" vertex="1">
          <mxGeometry x="894" y="997" width="120" height="60" as="geometry" />
        </mxCell>
        <mxCell id="smks-QdOnxBjkIpPTdev-49" value="" style="edgeStyle=none;curved=1;rounded=0;orthogonalLoop=1;jettySize=auto;html=1;fontSize=12;startSize=8;endSize=8;" parent="1" source="smks-QdOnxBjkIpPTdev-46" target="smks-QdOnxBjkIpPTdev-48" edge="1">
          <mxGeometry relative="1" as="geometry" />
        </mxCell>
        <mxCell id="smks-QdOnxBjkIpPTdev-46" value="电调响应、电机控制" style="whiteSpace=wrap;html=1;" parent="1" vertex="1">
          <mxGeometry x="894" y="1077" width="120" height="60" as="geometry" />
        </mxCell>
        <mxCell id="w_dKEn0cU2W3Prh6kk5N-18" style="edgeStyle=none;curved=1;rounded=0;orthogonalLoop=1;jettySize=auto;html=1;exitX=0.5;exitY=1;exitDx=0;exitDy=0;fontSize=12;startSize=8;endSize=8;" parent="1" source="smks-QdOnxBjkIpPTdev-48" target="w_dKEn0cU2W3Prh6kk5N-17" edge="1">
          <mxGeometry relative="1" as="geometry" />
        </mxCell>
        <mxCell id="smks-QdOnxBjkIpPTdev-48" value="电机输出" style="whiteSpace=wrap;html=1;" parent="1" vertex="1">
          <mxGeometry x="894" y="1157" width="120" height="60" as="geometry" />
        </mxCell>
        <mxCell id="smks-QdOnxBjkIpPTdev-53" value="" style="edgeStyle=none;curved=1;rounded=0;orthogonalLoop=1;jettySize=auto;html=1;fontSize=12;startSize=8;endSize=8;" parent="1" source="smks-QdOnxBjkIpPTdev-50" target="smks-QdOnxBjkIpPTdev-52" edge="1">
          <mxGeometry relative="1" as="geometry" />
        </mxCell>
        <mxCell id="smks-QdOnxBjkIpPTdev-50" value="飞行状态反馈" style="whiteSpace=wrap;html=1;dashed=1;" parent="1" vertex="1">
          <mxGeometry x="224" y="872" width="120" height="60" as="geometry" />
        </mxCell>
        <mxCell id="smks-QdOnxBjkIpPTdev-56" style="edgeStyle=none;curved=1;rounded=0;orthogonalLoop=1;jettySize=auto;html=1;exitX=0.5;exitY=1;exitDx=0;exitDy=0;entryX=0.5;entryY=0;entryDx=0;entryDy=0;fontSize=12;startSize=8;endSize=8;" parent="1" source="smks-QdOnxBjkIpPTdev-52" target="Ea9iT0A6i0U-_SVe9fDM-63" edge="1">
          <mxGeometry relative="1" as="geometry" />
        </mxCell>
        <mxCell id="smks-QdOnxBjkIpPTdev-57" style="edgeStyle=none;curved=1;rounded=0;orthogonalLoop=1;jettySize=auto;html=1;exitX=1;exitY=0.5;exitDx=0;exitDy=0;entryX=0;entryY=0.5;entryDx=0;entryDy=0;fontSize=12;startSize=8;endSize=8;" parent="1" source="smks-QdOnxBjkIpPTdev-52" target="smks-QdOnxBjkIpPTdev-54" edge="1">
          <mxGeometry relative="1" as="geometry" />
        </mxCell>
        <mxCell id="smks-QdOnxBjkIpPTdev-52" value="传感器数据采集" style="whiteSpace=wrap;html=1;" parent="1" vertex="1">
          <mxGeometry x="314" y="962" width="120" height="60" as="geometry" />
        </mxCell>
        <mxCell id="smks-QdOnxBjkIpPTdev-62" style="edgeStyle=none;curved=1;rounded=0;orthogonalLoop=1;jettySize=auto;html=1;exitX=1;exitY=0.5;exitDx=0;exitDy=0;entryX=1;entryY=0.5;entryDx=0;entryDy=0;fontSize=12;startSize=8;endSize=8;" parent="1" source="smks-QdOnxBjkIpPTdev-54" target="w_dKEn0cU2W3Prh6kk5N-14" edge="1">
          <mxGeometry relative="1" as="geometry">
            <mxPoint x="474" y="1072" as="targetPoint" />
            <Array as="points">
              <mxPoint x="624" y="832" />
            </Array>
          </mxGeometry>
        </mxCell>
        <mxCell id="smks-QdOnxBjkIpPTdev-54" value="评估与修正" style="whiteSpace=wrap;html=1;" parent="1" vertex="1">
          <mxGeometry x="464" y="962" width="120" height="60" as="geometry" />
        </mxCell>
        <mxCell id="smks-QdOnxBjkIpPTdev-68" style="edgeStyle=none;curved=1;rounded=0;orthogonalLoop=1;jettySize=auto;html=1;exitX=0.5;exitY=1;exitDx=0;exitDy=0;entryX=0.5;entryY=0;entryDx=0;entryDy=0;fontSize=12;startSize=8;endSize=8;" parent="1" source="smks-QdOnxBjkIpPTdev-38" target="smks-QdOnxBjkIpPTdev-40" edge="1">
          <mxGeometry relative="1" as="geometry" />
        </mxCell>
        <mxCell id="smks-QdOnxBjkIpPTdev-38" value="航线PID调节" style="whiteSpace=wrap;html=1;" parent="1" vertex="1">
          <mxGeometry x="754" y="757" width="120" height="60" as="geometry" />
        </mxCell>
        <mxCell id="smks-QdOnxBjkIpPTdev-83" value="" style="edgeStyle=none;curved=1;rounded=0;orthogonalLoop=1;jettySize=auto;html=1;fontSize=12;startSize=8;endSize=8;" parent="1" source="smks-QdOnxBjkIpPTdev-80" target="smks-QdOnxBjkIpPTdev-82" edge="1">
          <mxGeometry relative="1" as="geometry" />
        </mxCell>
        <mxCell id="smks-QdOnxBjkIpPTdev-80" value="稀疏光流" style="whiteSpace=wrap;html=1;" parent="1" vertex="1">
          <mxGeometry x="314" y="1940" width="120" height="60" as="geometry" />
        </mxCell>
        <mxCell id="smks-QdOnxBjkIpPTdev-84" style="edgeStyle=none;curved=1;rounded=0;orthogonalLoop=1;jettySize=auto;html=1;exitX=0.5;exitY=0;exitDx=0;exitDy=0;entryX=0.5;entryY=1;entryDx=0;entryDy=0;fontSize=12;startSize=8;endSize=8;" parent="1" source="smks-QdOnxBjkIpPTdev-82" target="smks-QdOnxBjkIpPTdev-79" edge="1">
          <mxGeometry relative="1" as="geometry" />
        </mxCell>
        <mxCell id="smks-QdOnxBjkIpPTdev-99" style="edgeStyle=none;curved=1;rounded=0;orthogonalLoop=1;jettySize=auto;html=1;exitX=1;exitY=0.5;exitDx=0;exitDy=0;entryX=0;entryY=0.5;entryDx=0;entryDy=0;fontSize=12;startSize=8;endSize=8;" parent="1" source="smks-QdOnxBjkIpPTdev-82" target="smks-QdOnxBjkIpPTdev-92" edge="1">
          <mxGeometry relative="1" as="geometry" />
        </mxCell>
        <mxCell id="smks-QdOnxBjkIpPTdev-82" value="YOLOv3浅层" style="whiteSpace=wrap;html=1;" parent="1" vertex="1">
          <mxGeometry x="454" y="1940" width="120" height="60" as="geometry" />
        </mxCell>
        <mxCell id="smks-QdOnxBjkIpPTdev-87" value="" style="edgeStyle=none;curved=1;rounded=0;orthogonalLoop=1;jettySize=auto;html=1;fontSize=12;startSize=8;endSize=8;" parent="1" source="smks-QdOnxBjkIpPTdev-85" target="smks-QdOnxBjkIpPTdev-86" edge="1">
          <mxGeometry relative="1" as="geometry" />
        </mxCell>
        <mxCell id="smks-QdOnxBjkIpPTdev-85" value="多帧稀疏光流" style="whiteSpace=wrap;html=1;" parent="1" vertex="1">
          <mxGeometry x="314" y="2100" width="120" height="60" as="geometry" />
        </mxCell>
        <mxCell id="smks-QdOnxBjkIpPTdev-89" value="" style="edgeStyle=none;curved=1;rounded=0;orthogonalLoop=1;jettySize=auto;html=1;fontSize=12;startSize=8;endSize=8;" parent="1" source="smks-QdOnxBjkIpPTdev-86" target="smks-QdOnxBjkIpPTdev-88" edge="1">
          <mxGeometry relative="1" as="geometry" />
        </mxCell>
        <mxCell id="smks-QdOnxBjkIpPTdev-86" value="Shi-Tomasi特征角点提取" style="whiteSpace=wrap;html=1;" parent="1" vertex="1">
          <mxGeometry x="454" y="2100" width="120" height="60" as="geometry" />
        </mxCell>
        <mxCell id="smks-QdOnxBjkIpPTdev-91" value="" style="edgeStyle=none;curved=1;rounded=0;orthogonalLoop=1;jettySize=auto;html=1;fontSize=12;startSize=8;endSize=8;" parent="1" source="smks-QdOnxBjkIpPTdev-88" target="smks-QdOnxBjkIpPTdev-90" edge="1">
          <mxGeometry relative="1" as="geometry" />
        </mxCell>
        <mxCell id="smks-QdOnxBjkIpPTdev-88" value="LK稀疏光流特征图的设计与生成" style="whiteSpace=wrap;html=1;" parent="1" vertex="1">
          <mxGeometry x="594" y="2100" width="120" height="60" as="geometry" />
        </mxCell>
        <mxCell id="smks-QdOnxBjkIpPTdev-93" value="" style="edgeStyle=none;curved=1;rounded=0;orthogonalLoop=1;jettySize=auto;html=1;fontSize=12;startSize=8;endSize=8;" parent="1" source="smks-QdOnxBjkIpPTdev-90" target="smks-QdOnxBjkIpPTdev-92" edge="1">
          <mxGeometry relative="1" as="geometry" />
        </mxCell>
        <mxCell id="smks-QdOnxBjkIpPTdev-90" value="时序特征提取模块" style="whiteSpace=wrap;html=1;" parent="1" vertex="1">
          <mxGeometry x="594" y="2020" width="120" height="60" as="geometry" />
        </mxCell>
        <mxCell id="smks-QdOnxBjkIpPTdev-95" value="" style="edgeStyle=none;curved=1;rounded=0;orthogonalLoop=1;jettySize=auto;html=1;fontSize=12;startSize=8;endSize=8;" parent="1" source="smks-QdOnxBjkIpPTdev-92" target="smks-QdOnxBjkIpPTdev-94" edge="1">
          <mxGeometry relative="1" as="geometry" />
        </mxCell>
        <mxCell id="smks-QdOnxBjkIpPTdev-92" value="时空特征融合机制" style="whiteSpace=wrap;html=1;" parent="1" vertex="1">
          <mxGeometry x="594" y="1940" width="120" height="60" as="geometry" />
        </mxCell>
        <mxCell id="smks-QdOnxBjkIpPTdev-97" value="" style="edgeStyle=none;curved=1;rounded=0;orthogonalLoop=1;jettySize=auto;html=1;fontSize=12;startSize=8;endSize=8;" parent="1" source="smks-QdOnxBjkIpPTdev-94" target="smks-QdOnxBjkIpPTdev-96" edge="1">
          <mxGeometry relative="1" as="geometry" />
        </mxCell>
        <mxCell id="smks-QdOnxBjkIpPTdev-100" style="edgeStyle=none;curved=0;rounded=0;orthogonalLoop=1;jettySize=auto;html=1;exitX=0.5;exitY=0;exitDx=0;exitDy=0;entryX=1;entryY=0.5;entryDx=0;entryDy=0;fontSize=12;startSize=8;endSize=8;" parent="1" source="smks-QdOnxBjkIpPTdev-94" target="smks-QdOnxBjkIpPTdev-79" edge="1">
          <mxGeometry relative="1" as="geometry">
            <Array as="points">
              <mxPoint x="794" y="1890" />
            </Array>
          </mxGeometry>
        </mxCell>
        <mxCell id="smks-QdOnxBjkIpPTdev-94" value="YOLOv3(FPN 特征金字塔网络)" style="whiteSpace=wrap;html=1;" parent="1" vertex="1">
          <mxGeometry x="734" y="1940" width="120" height="60" as="geometry" />
        </mxCell>
        <mxCell id="smks-QdOnxBjkIpPTdev-96" value="检测结果" style="whiteSpace=wrap;html=1;" parent="1" vertex="1">
          <mxGeometry x="734" y="2020" width="120" height="60" as="geometry" />
        </mxCell>
        <mxCell id="rVAHL7_RWKZW1T58zfoD-6" value="" style="edgeStyle=none;curved=1;rounded=0;orthogonalLoop=1;jettySize=auto;html=1;fontSize=12;startSize=8;endSize=8;entryX=0;entryY=0.5;entryDx=0;entryDy=0;" parent="1" source="rVAHL7_RWKZW1T58zfoD-1" target="UyfFENuDviEZr1RP1mZX-1" edge="1">
          <mxGeometry relative="1" as="geometry" />
        </mxCell>
        <mxCell id="rVAHL7_RWKZW1T58zfoD-1" value="摄像头" style="whiteSpace=wrap;html=1;" parent="1" vertex="1">
          <mxGeometry x="112" y="2370" width="120" height="60" as="geometry" />
        </mxCell>
        <mxCell id="w_dKEn0cU2W3Prh6kk5N-25" style="edgeStyle=none;curved=1;rounded=0;orthogonalLoop=1;jettySize=auto;html=1;fontSize=12;startSize=8;endSize=8;" parent="1" source="rVAHL7_RWKZW1T58zfoD-2" target="rVAHL7_RWKZW1T58zfoD-1" edge="1">
          <mxGeometry relative="1" as="geometry" />
        </mxCell>
        <mxCell id="rVAHL7_RWKZW1T58zfoD-2" value="检测场景" style="whiteSpace=wrap;html=1;" parent="1" vertex="1">
          <mxGeometry x="112" y="2510" width="120" height="60" as="geometry" />
        </mxCell>
        <mxCell id="rVAHL7_RWKZW1T58zfoD-5" value="画面分块" style="whiteSpace=wrap;html=1;" parent="1" vertex="1">
          <mxGeometry x="391" y="2370" width="120" height="60" as="geometry" />
        </mxCell>
        <mxCell id="rVAHL7_RWKZW1T58zfoD-7" value="" style="strokeWidth=2;html=1;shape=mxgraph.flowchart.annotation_2;align=left;labelPosition=right;pointerEvents=1;" parent="1" vertex="1">
          <mxGeometry x="511" y="2350" width="50" height="110" as="geometry" />
        </mxCell>
        <mxCell id="rVAHL7_RWKZW1T58zfoD-11" value="区域#1" style="whiteSpace=wrap;html=1;" parent="1" vertex="1">
          <mxGeometry x="561" y="2340" width="50" height="30" as="geometry" />
        </mxCell>
        <mxCell id="rVAHL7_RWKZW1T58zfoD-12" value="区域#2" style="whiteSpace=wrap;html=1;" parent="1" vertex="1">
          <mxGeometry x="561" y="2370" width="50" height="30" as="geometry" />
        </mxCell>
        <mxCell id="rVAHL7_RWKZW1T58zfoD-13" value="区域#n" style="whiteSpace=wrap;html=1;" parent="1" vertex="1">
          <mxGeometry x="561" y="2440" width="50" height="30" as="geometry" />
        </mxCell>
        <mxCell id="rVAHL7_RWKZW1T58zfoD-14" value="" style="endArrow=none;dashed=1;html=1;dashPattern=1 3;strokeWidth=2;rounded=0;fontSize=12;startSize=8;endSize=8;curved=1;" parent="1" edge="1">
          <mxGeometry width="50" height="50" relative="1" as="geometry">
            <mxPoint x="563" y="2420" as="sourcePoint" />
            <mxPoint x="613" y="2420" as="targetPoint" />
          </mxGeometry>
        </mxCell>
        <mxCell id="rVAHL7_RWKZW1T58zfoD-15" value="" style="endArrow=classic;html=1;rounded=0;fontSize=12;startSize=8;endSize=8;curved=1;entryX=0.007;entryY=0.117;entryDx=0;entryDy=0;entryPerimeter=0;" parent="1" target="rVAHL7_RWKZW1T58zfoD-16" edge="1">
          <mxGeometry width="50" height="50" relative="1" as="geometry">
            <mxPoint x="623" y="2356" as="sourcePoint" />
            <mxPoint x="662" y="2350" as="targetPoint" />
          </mxGeometry>
        </mxCell>
        <mxCell id="rVAHL7_RWKZW1T58zfoD-23" value="" style="edgeStyle=none;curved=1;rounded=0;orthogonalLoop=1;jettySize=auto;html=1;fontSize=12;startSize=8;endSize=8;" parent="1" source="rVAHL7_RWKZW1T58zfoD-16" target="rVAHL7_RWKZW1T58zfoD-22" edge="1">
          <mxGeometry relative="1" as="geometry" />
        </mxCell>
        <mxCell id="rVAHL7_RWKZW1T58zfoD-16" value="时空特征融合检测模型" style="rounded=0;whiteSpace=wrap;html=1;" parent="1" vertex="1">
          <mxGeometry x="661" y="2340" width="90" height="140" as="geometry" />
        </mxCell>
        <mxCell id="rVAHL7_RWKZW1T58zfoD-17" value="" style="endArrow=classic;html=1;rounded=0;fontSize=12;startSize=8;endSize=8;curved=1;entryX=0;entryY=0.111;entryDx=0;entryDy=0;entryPerimeter=0;" parent="1" edge="1">
          <mxGeometry width="50" height="50" relative="1" as="geometry">
            <mxPoint x="623" y="2460.02" as="sourcePoint" />
            <mxPoint x="663" y="2460.02" as="targetPoint" />
          </mxGeometry>
        </mxCell>
        <mxCell id="rVAHL7_RWKZW1T58zfoD-19" style="edgeStyle=none;curved=1;rounded=0;orthogonalLoop=1;jettySize=auto;html=1;fontSize=12;startSize=8;endSize=8;" parent="1" source="rVAHL7_RWKZW1T58zfoD-18" target="rVAHL7_RWKZW1T58zfoD-16" edge="1">
          <mxGeometry relative="1" as="geometry" />
        </mxCell>
        <mxCell id="rVAHL7_RWKZW1T58zfoD-20" value="数据预处理&amp;amp;网络训练" style="edgeLabel;html=1;align=center;verticalAlign=middle;resizable=0;points=[];fontSize=12;" parent="rVAHL7_RWKZW1T58zfoD-19" vertex="1" connectable="0">
          <mxGeometry relative="1" as="geometry">
            <mxPoint as="offset" />
          </mxGeometry>
        </mxCell>
        <mxCell id="rVAHL7_RWKZW1T58zfoD-18" value="训练集" style="whiteSpace=wrap;html=1;" parent="1" vertex="1">
          <mxGeometry x="641" y="2230" width="130" height="60" as="geometry" />
        </mxCell>
        <mxCell id="rVAHL7_RWKZW1T58zfoD-26" value="" style="edgeStyle=none;curved=1;rounded=0;orthogonalLoop=1;jettySize=auto;html=1;fontSize=12;startSize=8;endSize=8;" parent="1" source="rVAHL7_RWKZW1T58zfoD-22" target="rVAHL7_RWKZW1T58zfoD-25" edge="1">
          <mxGeometry relative="1" as="geometry" />
        </mxCell>
        <mxCell id="rVAHL7_RWKZW1T58zfoD-33" style="edgeStyle=none;curved=1;rounded=0;orthogonalLoop=1;jettySize=auto;html=1;fontSize=12;startSize=8;endSize=8;" parent="1" source="rVAHL7_RWKZW1T58zfoD-22" target="rVAHL7_RWKZW1T58zfoD-32" edge="1">
          <mxGeometry relative="1" as="geometry" />
        </mxCell>
        <mxCell id="rVAHL7_RWKZW1T58zfoD-22" value="结果整合" style="whiteSpace=wrap;html=1;rounded=0;" parent="1" vertex="1">
          <mxGeometry x="771" y="2370" width="120" height="60" as="geometry" />
        </mxCell>
        <mxCell id="rVAHL7_RWKZW1T58zfoD-25" value="显示模块" style="whiteSpace=wrap;html=1;rounded=0;" parent="1" vertex="1">
          <mxGeometry x="771" y="2510" width="120" height="60" as="geometry" />
        </mxCell>
        <mxCell id="rVAHL7_RWKZW1T58zfoD-29" value="上位机" style="text;html=1;align=center;verticalAlign=middle;whiteSpace=wrap;rounded=0;fontSize=16;" parent="1" vertex="1">
          <mxGeometry x="611" y="2490" width="60" height="30" as="geometry" />
        </mxCell>
        <mxCell id="rVAHL7_RWKZW1T58zfoD-31" value="无人机的时空特征融合检测框架" style="text;html=1;align=center;verticalAlign=middle;whiteSpace=wrap;rounded=0;fontSize=16;" parent="1" vertex="1">
          <mxGeometry x="464" y="2190" width="240" height="30" as="geometry" />
        </mxCell>
        <mxCell id="rVAHL7_RWKZW1T58zfoD-32" value="对无人机发出指令" style="whiteSpace=wrap;html=1;rounded=0;" parent="1" vertex="1">
          <mxGeometry x="911" y="2370" width="120" height="60" as="geometry" />
        </mxCell>
        <mxCell id="w_dKEn0cU2W3Prh6kk5N-2" value="识别程序" style="text;html=1;align=center;verticalAlign=middle;whiteSpace=wrap;rounded=0;fontSize=16;" parent="1" vertex="1">
          <mxGeometry x="544" y="2670" width="80" height="30" as="geometry" />
        </mxCell>
        <mxCell id="w_dKEn0cU2W3Prh6kk5N-4" value="&lt;span style=&quot;box-sizing: inherit; font-weight: 700; color: rgb(6, 6, 7); font-family: -apple-system, blinkmacsystemfont, &amp;quot;Helvetica Neue&amp;quot;, helvetica, &amp;quot;segoe ui&amp;quot;, arial, roboto, &amp;quot;PingFang SC&amp;quot;, miui, &amp;quot;Hiragino Sans GB&amp;quot;, &amp;quot;Microsoft Yahei&amp;quot;, sans-serif; font-size: 14px; letter-spacing: 0.25px; text-align: start; white-space-collapse: preserve; background-color: rgb(255, 255, 255);&quot;&gt;无人机飞行控制流程图&lt;/span&gt;" style="text;html=1;align=center;verticalAlign=middle;whiteSpace=wrap;rounded=0;fontSize=16;" parent="1" vertex="1">
          <mxGeometry x="154" y="1202" width="150" height="30" as="geometry" />
        </mxCell>
        <mxCell id="w_dKEn0cU2W3Prh6kk5N-9" style="edgeStyle=none;curved=1;rounded=0;orthogonalLoop=1;jettySize=auto;html=1;entryX=0;entryY=0.5;entryDx=0;entryDy=0;fontSize=12;startSize=8;endSize=8;" parent="1" source="w_dKEn0cU2W3Prh6kk5N-8" target="smks-QdOnxBjkIpPTdev-17" edge="1">
          <mxGeometry relative="1" as="geometry" />
        </mxCell>
        <mxCell id="w_dKEn0cU2W3Prh6kk5N-8" value="GPS" style="rounded=0;whiteSpace=wrap;html=1;dashed=1;" parent="1" vertex="1">
          <mxGeometry x="804" y="367" width="60" height="40" as="geometry" />
        </mxCell>
        <mxCell id="w_dKEn0cU2W3Prh6kk5N-12" style="edgeStyle=none;curved=1;rounded=0;orthogonalLoop=1;jettySize=auto;html=1;exitX=0.5;exitY=1;exitDx=0;exitDy=0;fontSize=12;startSize=8;endSize=8;" parent="1" source="w_dKEn0cU2W3Prh6kk5N-11" target="smks-QdOnxBjkIpPTdev-54" edge="1">
          <mxGeometry relative="1" as="geometry" />
        </mxCell>
        <mxCell id="w_dKEn0cU2W3Prh6kk5N-11" value="GPS" style="rounded=0;whiteSpace=wrap;html=1;" parent="1" vertex="1">
          <mxGeometry x="494" y="902" width="60" height="40" as="geometry" />
        </mxCell>
        <mxCell id="w_dKEn0cU2W3Prh6kk5N-15" style="edgeStyle=none;curved=1;rounded=0;orthogonalLoop=1;jettySize=auto;html=1;exitX=0.5;exitY=1;exitDx=0;exitDy=0;fontSize=12;startSize=8;endSize=8;dashed=1;" parent="1" source="w_dKEn0cU2W3Prh6kk5N-14" target="smks-QdOnxBjkIpPTdev-52" edge="1">
          <mxGeometry relative="1" as="geometry" />
        </mxCell>
        <mxCell id="w_dKEn0cU2W3Prh6kk5N-14" value="设定飞行目标" style="rounded=0;whiteSpace=wrap;html=1;dashed=1;" parent="1" vertex="1">
          <mxGeometry x="314" y="782" width="120" height="60" as="geometry" />
        </mxCell>
        <mxCell id="w_dKEn0cU2W3Prh6kk5N-29" style="edgeStyle=none;curved=1;rounded=0;orthogonalLoop=1;jettySize=auto;html=1;exitX=0.5;exitY=1;exitDx=0;exitDy=0;fontSize=12;startSize=8;endSize=8;" parent="1" source="w_dKEn0cU2W3Prh6kk5N-17" target="w_dKEn0cU2W3Prh6kk5N-28" edge="1">
          <mxGeometry relative="1" as="geometry" />
        </mxCell>
        <mxCell id="w_dKEn0cU2W3Prh6kk5N-17" value="飞行状态反馈" style="whiteSpace=wrap;html=1;" parent="1" vertex="1">
          <mxGeometry x="894" y="1237" width="120" height="60" as="geometry" />
        </mxCell>
        <mxCell id="w_dKEn0cU2W3Prh6kk5N-20" style="edgeStyle=none;curved=1;rounded=0;orthogonalLoop=1;jettySize=auto;html=1;fontSize=12;startSize=8;endSize=8;" parent="1" source="w_dKEn0cU2W3Prh6kk5N-19" target="w_dKEn0cU2W3Prh6kk5N-14" edge="1">
          <mxGeometry relative="1" as="geometry" />
        </mxCell>
        <mxCell id="w_dKEn0cU2W3Prh6kk5N-19" value="GPS" style="rounded=0;whiteSpace=wrap;html=1;" parent="1" vertex="1">
          <mxGeometry x="234" y="792" width="60" height="40" as="geometry" />
        </mxCell>
        <mxCell id="w_dKEn0cU2W3Prh6kk5N-24" value="&lt;span style=&quot;box-sizing: inherit; font-weight: 700; color: rgb(6, 6, 7); font-family: -apple-system, blinkmacsystemfont, &amp;quot;Helvetica Neue&amp;quot;, helvetica, &amp;quot;segoe ui&amp;quot;, arial, roboto, &amp;quot;PingFang SC&amp;quot;, miui, &amp;quot;Hiragino Sans GB&amp;quot;, &amp;quot;Microsoft Yahei&amp;quot;, sans-serif; font-size: 14px; letter-spacing: 0.25px; text-align: left; background-color: rgb(255, 255, 255);&quot;&gt;无人机任务执行流程图&lt;/span&gt;" style="text;html=1;align=center;verticalAlign=middle;whiteSpace=wrap;rounded=0;fontSize=16;" parent="1" vertex="1">
          <mxGeometry x="754" y="1287" width="110" height="30" as="geometry" />
        </mxCell>
        <mxCell id="w_dKEn0cU2W3Prh6kk5N-27" style="edgeStyle=none;curved=1;rounded=0;orthogonalLoop=1;jettySize=auto;html=1;fontSize=12;startSize=8;endSize=8;" parent="1" source="w_dKEn0cU2W3Prh6kk5N-26" target="smks-QdOnxBjkIpPTdev-17" edge="1">
          <mxGeometry relative="1" as="geometry" />
        </mxCell>
        <mxCell id="w_dKEn0cU2W3Prh6kk5N-26" value="开始" style="rounded=1;whiteSpace=wrap;html=1;arcSize=50;" parent="1" vertex="1">
          <mxGeometry x="894" y="277" width="120" height="60" as="geometry" />
        </mxCell>
        <mxCell id="w_dKEn0cU2W3Prh6kk5N-28" value="结束" style="rounded=1;whiteSpace=wrap;html=1;arcSize=50;" parent="1" vertex="1">
          <mxGeometry x="894" y="1317" width="120" height="60" as="geometry" />
        </mxCell>
        <mxCell id="UyfFENuDviEZr1RP1mZX-2" style="edgeStyle=none;curved=1;rounded=0;orthogonalLoop=1;jettySize=auto;html=1;entryX=0;entryY=0.5;entryDx=0;entryDy=0;fontSize=12;startSize=8;endSize=8;" edge="1" parent="1" source="UyfFENuDviEZr1RP1mZX-1" target="rVAHL7_RWKZW1T58zfoD-5">
          <mxGeometry relative="1" as="geometry" />
        </mxCell>
        <mxCell id="UyfFENuDviEZr1RP1mZX-1" value="稳定画面" style="whiteSpace=wrap;html=1;" vertex="1" parent="1">
          <mxGeometry x="252" y="2370" width="120" height="60" as="geometry" />
        </mxCell>
      </root>
    </mxGraphModel>
  </diagram>
</mxfile>
